<?xml version="1.0" encoding="UTF-8" standalone="no"?>
<!DOCTYPE svg PUBLIC "-//W3C//DTD SVG 1.1//EN" "http://www.w3.org/Graphics/SVG/1.1/DTD/svg11.dtd">
<svg width="100%" height="100%" viewBox="0 0 33 33" version="1.1" xmlns="http://www.w3.org/2000/svg" xmlns:xlink="http://www.w3.org/1999/xlink" xml:space="preserve" xmlns:serif="http://www.serif.com/" style="fill-rule:evenodd;clip-rule:evenodd;stroke-linejoin:round;stroke-miterlimit:2;">
    <path d="M28.819,6.534C26.744,3.705 23.748,1.538 20.125,0.555C16.503,-0.427 12.837,-0.068 9.644,1.333L28.819,6.534ZM2.806,7.027C4.224,4.936 6.096,3.235 8.243,2.031L22.368,5.863C21.441,6.405 20.448,7.338 19.68,8.363L31.294,11.514C31.624,12.617 31.838,13.761 31.928,14.928L2.806,7.027ZM31.428,20.377C31.264,20.997 31.067,21.599 30.838,22.181L0.168,13.861C0.258,13.241 0.384,12.62 0.548,12C0.934,10.543 1.503,9.186 2.226,7.949L17.235,12.021C16.634,12.89 16.087,13.835 15.605,14.846L31.692,19.211C31.618,19.6 31.53,19.989 31.427,20.379L31.428,20.377ZM0.928,21.616C0.184,19.507 -0.133,17.226 0.051,14.908L14.206,18.748C14.104,19.074 14.008,19.404 13.919,19.739C13.739,20.421 13.592,21.102 13.478,21.778L28.762,25.924C28.051,26.881 27.24,27.748 26.35,28.513L0.928,21.616ZM11.851,31.821C7.026,30.512 3.311,27.103 1.409,22.826L12.927,25.951C12.909,27.039 12.975,28.098 13.122,29.115L21.491,31.385C18.503,32.497 15.16,32.719 11.851,31.821Z"/>
</svg>
